<svg width="240" height="64" viewBox="0 0 240 64" fill="none" xmlns="http://www.w3.org/2000/svg">
<path d="M123.948 15.0157C124.691 15.7575 125.512 16.3822 126.489 16.8117C127.466 17.2411 128.6 17.4363 129.811 17.4363C130.788 17.4363 131.687 17.2802 132.508 17.0459C133.329 16.7726 134.033 16.4212 134.658 15.9527C135.284 15.4842 135.831 14.9376 136.261 14.352C136.691 13.7664 137.043 13.1027 137.277 12.3999H134.189C133.994 12.7513 133.759 13.1027 133.486 13.415C133.212 13.7273 132.938 14.0006 132.586 14.2349C132.235 14.4691 131.844 14.6253 131.414 14.7815C130.984 14.9376 130.476 14.9767 129.968 14.9767C129.147 14.9767 128.443 14.8205 127.779 14.5082C127.153 14.1958 126.567 13.8054 126.137 13.2198C125.707 12.7122 125.355 12.0485 125.082 11.3067C124.847 10.604 124.73 9.7841 124.73 8.92518C124.73 8.1053 124.847 7.32446 125.082 6.54362C125.316 5.80183 125.629 5.17716 126.059 4.63057C126.489 4.08398 127.036 3.69356 127.661 3.34219C128.287 3.02985 129.029 2.87368 129.85 2.87368C130.867 2.87368 131.727 3.10794 132.469 3.57644C133.212 4.04494 133.759 4.7477 134.111 5.60662H137.316C137.121 4.82578 136.769 4.12303 136.339 3.45931C135.909 2.7956 135.401 2.28805 134.736 1.81955C134.111 1.35105 133.368 0.999671 132.547 0.765419C131.727 0.492126 130.828 0.375 129.85 0.375C128.6 0.375 127.466 0.57021 126.45 1.03871C125.433 1.46817 124.573 2.09284 123.87 2.83464C123.127 3.57644 122.619 4.51344 122.228 5.56758C121.837 6.62171 121.642 7.71488 121.642 8.96422C121.642 10.2136 121.837 11.3067 122.228 12.3609C122.697 13.376 123.244 14.2739 123.948 15.0157ZM96.5474 8.80806C96.8992 7.91009 97.251 7.01213 97.6028 6.11416C97.9546 5.2162 98.3063 4.27919 98.6581 3.38123H98.6972C98.8536 3.77165 99.0099 4.27919 99.2445 4.86482C99.479 5.48949 99.6744 6.07512 99.909 6.66075C100.183 7.32446 100.417 8.02722 100.73 8.76901C100.769 8.88614 100.808 9.00327 100.847 9.12039C100.886 9.23752 100.964 9.35464 101.003 9.51081C101.043 9.66698 101.121 9.7841 101.16 9.90123H96.1956L96.5474 8.80806ZM95.1793 12.439H102.059C102.332 13.2588 102.684 14.0397 102.997 14.8205C103.31 15.6014 103.622 16.3822 103.935 17.2021H106.984L100.339 0.804461H97.1728C96.4301 2.56135 95.7656 4.12302 95.2184 5.45045C94.6321 6.81692 94.163 7.98818 93.694 9.04231C93.264 10.0964 92.8731 10.9944 92.5604 11.8143C92.2477 12.5951 91.935 13.2979 91.7005 13.9616C91.466 14.6253 91.1923 15.1719 90.9969 15.6794C90.8015 16.187 90.606 16.6945 90.3715 17.163H93.3422L95.1793 12.439ZM175.622 11.3458C175.388 12.0485 175.036 12.7122 174.567 13.2588C174.098 13.7664 173.551 14.1958 172.925 14.5472C172.3 14.8596 171.518 15.0157 170.736 15.0157C169.915 15.0157 169.212 14.8596 168.547 14.5472C167.922 14.2349 167.375 13.8445 166.906 13.2588C166.437 12.7513 166.124 12.0876 165.889 11.3458C165.655 10.604 165.538 9.82315 165.538 8.96422C165.538 8.1053 165.655 7.28542 165.889 6.58267C166.124 5.87991 166.476 5.2162 166.906 4.66961C167.336 4.16207 167.883 3.73261 168.547 3.42027C169.173 3.14698 169.955 2.95177 170.736 2.95177C171.557 2.95177 172.3 3.10793 172.964 3.42027C173.59 3.69356 174.176 4.12302 174.606 4.66961C175.075 5.17716 175.427 5.84087 175.661 6.58267C175.896 7.32446 176.013 8.14434 176.013 9.00327C176.013 9.82315 175.896 10.604 175.622 11.3458ZM179.062 8.96422C179.062 7.71488 178.867 6.58267 178.437 5.52853C178.046 4.4744 177.459 3.57644 176.717 2.7956C175.974 2.0538 175.114 1.42913 174.098 1.03871C173.121 0.609252 171.987 0.414042 170.775 0.414042C169.564 0.414042 168.43 0.609252 167.414 1.03871C166.398 1.46817 165.538 2.0538 164.795 2.83464C164.052 3.57644 163.505 4.4744 163.114 5.52853C162.723 6.58267 162.489 7.67584 162.489 8.92518C162.489 10.1745 162.684 11.3067 163.114 12.3218C163.505 13.376 164.052 14.2739 164.795 15.0157C165.538 15.7575 166.398 16.3822 167.414 16.7726C168.43 17.2021 169.564 17.3973 170.775 17.3973C172.026 17.3973 173.16 17.2021 174.176 16.7726C175.192 16.3431 176.052 15.7575 176.795 15.0157C177.538 14.2739 178.085 13.376 178.476 12.3218C178.867 11.3458 179.062 10.2136 179.062 8.96422ZM81.0686 14.6253V9.86219H83.6093C84.1174 9.86219 84.5474 9.90123 84.9774 9.97931C85.4073 10.0574 85.7591 10.1745 86.0327 10.3697C86.3064 10.5259 86.58 10.7992 86.7754 11.0725C86.9318 11.3848 87.049 11.7362 87.049 12.2047C87.049 12.7122 86.9318 13.1417 86.6972 13.4931C86.4627 13.8054 86.1891 14.0397 85.7982 14.1958C85.4073 14.352 84.9774 14.4691 84.4692 14.5082C83.9611 14.5472 83.4138 14.5863 82.8275 14.5863H81.0686V14.6253ZM81.0686 3.30314H83.062C83.5702 3.30314 84.0002 3.34219 84.352 3.34219C84.7428 3.38123 85.0946 3.49835 85.3682 3.61548C85.6419 3.77165 85.8764 3.96686 86.0327 4.24015C86.1891 4.51344 86.2673 4.86482 86.2673 5.25524C86.2673 6.03608 86.0327 6.58267 85.5637 6.85596C85.0946 7.12925 84.391 7.32446 83.492 7.3635H81.0686V3.30314ZM85.6809 16.9678C86.4627 16.8507 87.2054 16.6164 87.8308 16.3041C88.4562 15.9527 89.0034 15.4842 89.3943 14.8596C89.7852 14.2349 90.0197 13.454 90.0197 12.439C90.0197 11.8143 89.9024 11.2677 89.707 10.7992C89.5116 10.3307 89.2379 9.94027 88.9252 9.62794C88.6125 9.3156 88.2607 9.00327 87.8699 8.80806C87.479 8.61285 87.1272 8.41764 86.7754 8.33955C87.0881 8.22243 87.4008 8.06626 87.7135 7.87105C88.0262 7.67584 88.2607 7.44159 88.4953 7.12925C88.7298 6.85596 88.8862 6.50458 89.0425 6.11416C89.1989 5.72374 89.2379 5.29428 89.2379 4.82578C89.2379 4.0059 89.0816 3.38123 88.808 2.83464C88.5344 2.3271 88.0653 1.89764 87.479 1.5853C86.8927 1.27296 86.15 1.07775 85.2901 0.960629C84.391 0.843503 83.3748 0.804461 82.2021 0.804461H78.1761V17.163H83.2966C84.1174 17.124 84.8601 17.0849 85.6809 16.9678ZM149.785 14.5863H142.437V10.0964H149.082V7.51967H142.437V3.34219H149.629V0.765419H139.544V17.124H149.785V14.5863ZM111.44 3.2641H113.863C114.919 3.2641 115.779 3.42027 116.404 3.81069C117.029 4.20111 117.342 4.82578 117.342 5.76279C117.342 6.69979 117.029 7.32446 116.404 7.71488C115.779 8.1053 114.919 8.30051 113.863 8.30051H111.44V3.2641ZM111.44 10.7602H113.277L117.069 17.124H120.391L116.287 10.4088C116.795 10.2916 117.264 10.0964 117.772 9.86219C118.28 9.62794 118.671 9.3156 119.062 8.92518C119.453 8.53476 119.727 8.06626 119.922 7.51967C120.117 6.97309 120.235 6.34841 120.235 5.56758C120.235 4.7477 120.078 3.96686 119.727 3.30314C119.414 2.63943 118.906 2.09284 118.28 1.70243C117.694 1.31201 117.029 1.03871 116.287 0.921587C115.544 0.804461 114.762 0.765419 113.981 0.765419H108.547V17.124H111.479L111.44 10.7602ZM161.863 14.5863H155.257V0.765419H152.326V17.124H161.824L161.863 14.5863ZM202.945 8.80806C203.297 7.91009 203.648 7.01213 204 6.11416C204.352 5.2162 204.704 4.27919 205.056 3.38123H205.095C205.251 3.77165 205.407 4.27919 205.642 4.86482C205.876 5.48949 206.072 6.07512 206.306 6.66075C206.58 7.32446 206.814 8.02722 207.127 8.76901C207.166 8.88614 207.205 9.00327 207.244 9.12039C207.284 9.23752 207.362 9.35464 207.401 9.51081C207.44 9.66698 207.518 9.7841 207.557 9.90123H202.593L202.945 8.80806ZM201.577 12.439H208.456C208.73 13.2588 209.082 14.0397 209.394 14.8205C209.707 15.6014 210.02 16.3822 210.332 17.2021H213.381L206.697 0.804461H203.531C202.788 2.56135 202.124 4.12302 201.577 5.45045C200.99 6.81692 200.521 7.98818 200.052 9.04231C199.622 10.0964 199.231 10.9944 198.919 11.8143C198.606 12.5951 198.293 13.2979 198.059 13.9616C197.824 14.6253 197.551 15.1719 197.355 15.6794C197.16 16.187 196.964 16.6945 196.73 17.163H199.7L201.577 12.439ZM184.417 8.72997C184.417 8.22243 184.417 7.71488 184.417 7.20734C184.417 6.69979 184.417 6.19225 184.417 5.76279V4.7477H184.456C184.573 4.98195 184.847 5.37237 185.199 5.99704C185.59 6.62171 186.02 7.32446 186.489 8.18339L191.766 17.163H195.244V0.765419H192.469V8.8471C192.469 9.66698 192.469 10.4478 192.469 11.2287C192.469 12.0095 192.469 12.6732 192.469 13.1808L192.43 13.2198C192.313 13.0636 192.196 12.8294 192.039 12.5561C191.883 12.2828 191.727 12.0485 191.57 11.7752C191.414 11.5019 191.257 11.2287 191.062 10.9554C190.906 10.6821 190.749 10.4088 190.593 10.1745L185.16 0.804461H181.603V17.163H184.456V8.72997H184.417ZM181.759 29.4222C181.994 28.7194 182.345 28.0557 182.775 27.5091C183.205 27.0016 183.753 26.5721 184.417 26.2598C185.043 25.9865 185.824 25.7913 186.606 25.7913C187.427 25.7913 188.17 25.9475 188.834 26.2598C189.459 26.5331 190.007 26.9626 190.476 27.5091C190.945 28.0557 191.297 28.6804 191.531 29.4222C191.766 30.164 191.883 30.9839 191.883 31.8428C191.883 32.7017 191.766 33.5216 191.492 34.2243C191.257 34.9271 190.906 35.5908 190.437 36.1374C189.968 36.645 189.42 37.0744 188.795 37.4258C188.13 37.7381 187.388 37.8943 186.606 37.8943C185.785 37.8943 185.082 37.7381 184.417 37.4258C183.792 37.1135 183.205 36.723 182.775 36.1374C182.306 35.6299 181.955 34.9661 181.72 34.2243C181.486 33.4826 181.368 32.7017 181.368 31.8428C181.368 30.9839 181.525 30.164 181.759 29.4222ZM183.284 39.7293C184.3 40.1587 185.433 40.3539 186.645 40.3539C187.896 40.3539 189.029 40.1587 190.046 39.7293C191.062 39.2998 191.922 38.7142 192.665 37.9724C193.407 37.2306 193.955 36.3326 194.345 35.2785C194.736 34.2243 194.971 33.1312 194.971 31.8818C194.971 30.6325 194.775 29.5003 194.345 28.4461C193.955 27.392 193.368 26.4941 192.626 25.7132C191.883 24.9714 191.023 24.3467 190.007 23.9563C188.99 23.5269 187.857 23.3317 186.645 23.3317C185.433 23.3317 184.3 23.5269 183.284 23.9563C182.267 24.3858 181.407 24.9714 180.665 25.7523C179.922 26.494 179.375 27.392 178.984 28.4461C178.593 29.5003 178.358 30.5935 178.358 31.8428C178.358 33.0921 178.554 34.2243 178.945 35.2394C179.336 36.2936 179.883 37.1915 180.626 37.9333C181.407 38.7142 182.267 39.2998 183.284 39.7293ZM78.8796 39.0265C79.4269 39.456 80.0523 39.8073 80.7949 40.0416C81.5376 40.2758 82.3194 40.393 83.2184 40.393C84.1174 40.393 84.9383 40.2758 85.6419 40.0026C86.3845 39.7293 87.049 39.3779 87.5572 38.9484C88.1044 38.4799 88.4953 37.9724 88.808 37.3477C89.1207 36.723 89.277 36.0203 89.277 35.2785C89.277 34.5757 89.1598 33.912 88.9643 33.4435C88.7689 32.936 88.4562 32.5065 88.0262 32.1551C87.6353 31.8038 87.1272 31.4914 86.5409 31.2572C85.9546 30.9839 85.3291 30.7496 84.5865 30.5544L83.4138 30.203C82.9839 30.0469 82.593 29.9297 82.2412 29.8126C81.8894 29.6955 81.5767 29.5393 81.3031 29.3441C81.0295 29.1879 80.834 28.9537 80.7168 28.7194C80.5604 28.4852 80.5213 28.2119 80.5213 27.8215C80.5213 27.2358 80.7559 26.7673 81.1858 26.3769C81.6158 25.9865 82.2412 25.7913 83.1011 25.7913C83.9611 25.7913 84.6256 25.9475 85.0946 26.3379C85.5637 26.7283 85.8764 27.1968 86.0327 27.8605H88.808C88.7689 27.1578 88.5734 26.5721 88.2998 25.9865C88.0262 25.4009 87.6353 24.9324 87.1272 24.542C86.6191 24.1515 86.0718 23.8392 85.4073 23.6049C84.7428 23.3707 84.0002 23.2536 83.1402 23.2536C82.3194 23.2536 81.5376 23.3707 80.834 23.6049C80.1305 23.8392 79.5441 24.1515 79.036 24.581C78.5278 24.9714 78.137 25.479 77.8634 26.0646C77.5897 26.6502 77.4334 27.2749 77.4334 27.9386C77.4334 28.6023 77.5506 29.1879 77.7461 29.6564C77.9415 30.164 78.2542 30.5935 78.6842 30.9839C79.0751 31.3743 79.5832 31.6866 80.1695 31.999C80.7559 32.2723 81.3813 32.5065 82.1239 32.7017L83.1793 32.975C83.6484 33.0921 84.0392 33.2093 84.4301 33.3654C84.821 33.4826 85.1337 33.6387 85.3682 33.8339C85.6419 33.9901 85.8373 34.2243 85.9936 34.4586C86.15 34.6929 86.1891 35.0052 86.1891 35.3956C86.1891 36.0984 85.9155 36.723 85.4464 37.1915C84.9383 37.66 84.1956 37.8943 83.2575 37.8943C82.3194 37.8943 81.5376 37.66 80.9122 37.1915C80.2868 36.723 79.935 36.1374 79.7396 35.3566H77.0034C77.0425 36.0984 77.2379 36.8011 77.5506 37.4258C77.9415 38.0505 78.3715 38.597 78.8796 39.0265ZM206.658 30.4373H200.365V26.2598H207.205V23.644H197.472V40.0026H200.404V32.975H206.697L206.658 30.4373ZM95.1011 27.5872C95.5311 27.0797 96.0783 26.6502 96.7037 26.2988C97.3291 25.9865 98.0718 25.8303 98.8927 25.8303C99.909 25.8303 100.769 26.0646 101.512 26.5331C102.254 27.0406 102.801 27.7043 103.192 28.5633H106.398C106.202 27.7824 105.85 27.0797 105.42 26.416C104.99 25.7913 104.482 25.2447 103.818 24.7762C103.192 24.3077 102.45 23.9563 101.629 23.7221C100.808 23.4488 99.909 23.3317 98.9318 23.3317C97.6809 23.3317 96.5474 23.5269 95.5311 23.9954C94.5148 24.4248 93.6549 25.0495 92.9513 25.7913C92.2086 26.5331 91.6614 27.4701 91.3096 28.5242C90.9187 29.5784 90.7233 30.6715 90.7233 31.9209C90.7233 33.1702 90.9187 34.2634 91.3096 35.3175C91.7005 36.3717 92.2477 37.2696 92.9513 38.0114C93.694 38.7532 94.5148 39.3779 95.492 39.8073C96.4692 40.2368 97.6028 40.432 98.8145 40.432C99.7917 40.432 100.691 40.2758 101.512 40.0416C102.332 39.7683 103.036 39.4169 103.661 38.9484C104.287 38.4799 104.834 37.9333 105.264 37.3477C105.694 36.7621 106.007 36.0984 106.28 35.3956H103.192C102.997 35.747 102.762 36.0984 102.489 36.4107C102.215 36.723 101.942 36.9963 101.59 37.2306C101.238 37.4648 100.847 37.621 100.417 37.7772C99.9871 37.9333 99.479 37.9724 98.9708 37.9724C98.15 37.9724 97.4464 37.8162 96.7819 37.5039C96.1565 37.1915 95.6093 36.8011 95.1402 36.2155C94.6712 35.7079 94.3194 35.0442 94.0849 34.3024C93.8503 33.5997 93.7331 32.7798 93.7331 31.9209C93.7331 31.101 93.8503 30.3202 94.0849 29.5393C94.3585 28.7585 94.6712 28.1338 95.1011 27.5872ZM121.407 40.0416V23.683H118.476V30.3592H111.479V23.683H108.547V40.0416H111.479V32.936H118.476V40.0806H121.407V40.0416ZM150.332 25.8694C151.153 25.8694 151.896 26.0255 152.56 26.3379C153.186 26.6112 153.772 27.0406 154.202 27.5872C154.671 28.0948 155.023 28.7585 155.257 29.5003C155.492 30.2421 155.609 31.062 155.609 31.9209C155.609 32.7798 155.492 33.5997 155.218 34.3024C154.945 35.0052 154.593 35.6689 154.163 36.2155C153.694 36.723 153.147 37.1525 152.521 37.5039C151.896 37.8162 151.114 37.9724 150.332 37.9724C149.512 37.9724 148.808 37.8162 148.143 37.5039C147.479 37.1915 146.932 36.8011 146.502 36.2155C146.033 35.7079 145.72 35.0442 145.446 34.3024C145.212 33.5606 145.095 32.7798 145.095 31.9209C145.095 31.062 145.212 30.2421 145.446 29.5393C145.681 28.8366 146.033 28.1728 146.463 27.6263C146.932 27.1187 147.44 26.6893 148.104 26.3769C148.769 25.9865 149.512 25.8694 150.332 25.8694ZM144.391 25.7523C143.648 26.494 143.101 27.392 142.71 28.4461C142.319 29.5003 142.085 30.5935 142.085 31.8428C142.085 33.0921 142.28 34.2243 142.71 35.2394C143.101 36.2936 143.648 37.1915 144.391 37.9333C145.134 38.6751 145.994 39.2998 147.01 39.6902C148.026 40.1197 149.16 40.3149 150.371 40.3149C151.622 40.3149 152.756 40.1197 153.772 39.6902C154.788 39.2608 155.648 38.6751 156.391 37.9333C157.134 37.1915 157.681 36.2936 158.072 35.2394C158.463 34.1853 158.697 33.0921 158.697 31.8428C158.697 30.5935 158.502 29.4612 158.072 28.4071C157.681 27.353 157.095 26.455 156.352 25.6742C155.609 24.9324 154.749 24.3077 153.733 23.9173C152.717 23.4878 151.583 23.2926 150.371 23.2926C149.16 23.2926 148.026 23.4878 147.01 23.9173C145.955 24.4248 145.095 25.0105 144.391 25.7523ZM161.16 23.683V40.0416H170.658V37.5039H164.052V23.683H161.16ZM136.065 27.5091C136.534 28.0167 136.886 28.6804 137.121 29.4222C137.355 30.164 137.472 30.9839 137.472 31.8428C137.472 32.7017 137.355 33.5216 137.082 34.2243C136.847 34.9271 136.495 35.5908 136.026 36.1374C135.557 36.645 135.01 37.0744 134.385 37.4258C133.759 37.7381 132.977 37.8943 132.196 37.8943C131.375 37.8943 130.671 37.7381 130.007 37.4258C129.381 37.1135 128.795 36.723 128.365 36.1374C127.896 35.6299 127.544 34.9661 127.31 34.2243C127.075 33.4826 126.958 32.7017 126.958 31.8428C126.958 30.9839 127.075 30.164 127.31 29.4612C127.544 28.7585 127.896 28.0948 128.326 27.5482C128.756 27.0406 129.303 26.6112 129.968 26.2988C130.593 26.0255 131.375 25.8303 132.157 25.8303C132.977 25.8303 133.72 25.9865 134.385 26.2988C135.01 26.6112 135.596 27.0016 136.065 27.5091ZM132.196 23.3317C130.984 23.3317 129.85 23.5269 128.834 23.9563C127.818 24.3858 126.958 24.9714 126.215 25.7523C125.472 26.494 124.925 27.392 124.534 28.4461C124.143 29.5003 123.909 30.5935 123.909 31.8428C123.909 33.0921 124.104 34.2243 124.534 35.2394C124.925 36.2936 125.472 37.1915 126.215 37.9333C126.958 38.6751 127.818 39.2998 128.834 39.6902C129.85 40.1197 130.984 40.3149 132.196 40.3149C133.446 40.3149 134.58 40.1197 135.596 39.6902C136.613 39.2608 137.472 38.6751 138.215 37.9333C138.958 37.1915 139.505 36.2936 139.896 35.2394C140.287 34.1853 140.521 33.0921 140.521 31.8428C140.521 30.5935 140.326 29.4612 139.896 28.4071C139.505 27.353 138.958 26.455 138.176 25.6742C137.433 24.9324 136.573 24.3077 135.557 23.9173C134.541 23.5659 133.407 23.3317 132.196 23.3317ZM169.251 55.8926H175.896V53.3159H169.251V49.1774H176.443V46.5616H166.358V62.9202H176.6V60.3824H169.251V55.8926ZM141.342 54.9556C141.381 55.0727 141.459 55.2289 141.499 55.346C141.538 55.5022 141.616 55.6193 141.655 55.7365H136.691L137.082 54.6042C137.433 53.7063 137.785 52.8083 138.137 51.9103C138.45 51.0124 138.801 50.0754 139.192 49.1774H139.231C139.388 49.5678 139.544 50.0754 139.779 50.661C140.013 51.2857 140.209 51.8713 140.443 52.4569C140.717 53.1206 140.951 53.8234 141.264 54.5652C141.264 54.7214 141.264 54.8385 141.342 54.9556ZM137.668 46.6006C136.925 48.3575 136.261 49.9192 135.714 51.2466C135.127 52.6131 134.658 53.7844 134.189 54.8385C133.759 55.8926 133.368 56.7906 133.056 57.6105C132.743 58.3913 132.43 59.0941 132.196 59.7578C131.922 60.3824 131.687 60.9681 131.492 61.4756C131.297 61.9832 131.101 62.4907 130.867 62.9592H133.837L135.674 58.2351H142.554C142.867 59.016 143.179 59.8359 143.492 60.6167C143.805 61.3975 144.117 62.1784 144.43 62.9983H147.479L140.834 46.6397H137.668V46.6006ZM224.091 54.6823C224.091 55.5022 224.091 56.283 224.091 57.0639C224.091 57.8447 224.091 58.5084 224.091 59.016L224.052 59.055C223.935 58.8988 223.818 58.6646 223.661 58.3913C223.505 58.118 223.349 57.8838 223.192 57.6105C223.036 57.3372 222.88 57.0639 222.684 56.7906C222.528 56.5173 222.371 56.283 222.254 56.0097L216.782 46.6397H213.186V62.9983H216.039V54.5652C216.039 54.0577 216.039 53.5111 216.039 53.0035C216.039 52.496 216.039 51.9884 216.039 51.559V50.5439H216.078C216.196 50.7781 216.469 51.1686 216.821 51.7932C217.212 52.4179 217.603 53.1206 218.111 53.9796L223.388 62.9592H226.867V46.6006H224.091V54.6823ZM228.86 46.6006V49.2164H232.964V63.0373H235.896V49.2164H240V46.6006H228.86ZM203.257 55.8926H209.902V53.3159H203.257V49.1774H210.45V46.5616H200.365V62.9202H210.606V60.3824H203.257V55.8926ZM189.577 55.1118C189.499 55.3851 189.381 55.7365 189.264 56.0488C189.147 56.4392 188.99 56.7906 188.873 57.22C188.717 57.6105 188.6 58.0399 188.482 58.4304C188.365 58.8208 188.209 59.2112 188.091 59.5235H188.052C187.935 59.1721 187.818 58.8208 187.74 58.4694C187.622 58.079 187.505 57.7276 187.388 57.2981C187.271 56.9077 187.153 56.5563 187.036 56.205C186.919 55.8536 186.801 55.5412 186.723 55.268L183.753 46.5616H179.14V62.9202H181.994V54.3309C181.994 53.1597 181.994 52.1446 181.994 51.2076C181.994 50.2706 181.955 49.4897 181.955 48.826H181.994C182.15 49.3726 182.306 49.9582 182.502 50.5439C182.658 51.1685 182.893 51.8323 183.127 52.6521L186.567 62.9202H189.42L192.274 54.409C192.43 53.8234 192.665 53.2768 192.821 52.6912C192.977 52.1056 193.173 51.598 193.329 51.1295C193.486 50.622 193.603 50.2315 193.72 49.8411C193.837 49.4507 193.915 49.1774 193.994 48.9432H194.033C194.033 49.2945 194.033 49.6459 194.033 50.1144C194.033 50.5829 194.033 51.0514 194.033 51.559C194.033 52.0665 194.033 52.6131 194.033 53.1206C194.033 53.6282 194.033 54.0967 194.033 54.5262V62.8811H196.925V46.5226H192.469L189.577 55.1118ZM126.567 54.6823C126.567 55.5022 126.567 56.283 126.567 57.0639C126.567 57.8447 126.567 58.5084 126.567 59.016V59.055C126.45 58.8988 126.332 58.6646 126.176 58.3913C126.02 58.118 125.863 57.8838 125.707 57.6105C125.551 57.3372 125.394 57.0639 125.199 56.7906C125.043 56.5173 124.886 56.283 124.73 56.0097L119.257 46.6397H115.661V62.9983H118.515V54.5652C118.515 54.0577 118.515 53.5111 118.515 53.0035C118.515 52.496 118.515 51.9884 118.515 51.559V50.5439H118.554C118.671 50.7781 118.945 51.1686 119.297 51.7932C119.687 52.4179 120.078 53.1206 120.586 53.9796L125.863 62.9592H129.342V46.6006H126.606V54.6823H126.567ZM151.779 50.4658C152.248 49.9582 152.795 49.5288 153.459 49.2164C154.124 48.9432 154.867 48.7479 155.727 48.7479C156.743 48.7479 157.642 48.9822 158.345 49.4507C159.088 49.9192 159.596 50.5829 159.987 51.4418H163.271C163.036 50.7391 162.684 50.0363 162.254 49.3726C161.785 48.7479 161.238 48.2014 160.613 47.7329C159.987 47.2644 159.205 46.913 158.424 46.6397C157.603 46.3664 156.704 46.2493 155.766 46.2493C154.515 46.2493 153.342 46.4445 152.326 46.8739C151.271 47.3034 150.411 47.889 149.668 48.6308C148.925 49.3726 148.378 50.2706 147.948 51.3638C147.557 52.4179 147.323 53.5111 147.323 54.7604C147.323 56.0488 147.518 57.181 147.948 58.2351C148.339 59.2893 148.886 60.1872 149.629 60.929C150.371 61.6708 151.192 62.2565 152.17 62.6469C153.147 63.0373 154.241 63.2715 155.375 63.2715C156.665 63.2715 157.759 63.0763 158.619 62.6859C159.479 62.2955 160.143 61.866 160.652 61.3195V62.9592H163.271V54.2919H154.945V56.5954H160.613C160.573 57.181 160.456 57.7276 160.222 58.2351C159.987 58.7427 159.714 59.1721 159.284 59.5626C158.854 59.953 158.385 60.2653 157.837 60.4605C157.251 60.6948 156.586 60.8119 155.805 60.8119C154.945 60.8119 154.202 60.6557 153.499 60.3434C152.795 60.0311 152.248 59.6406 151.779 59.055C151.271 58.5084 150.958 57.8838 150.723 57.1029C150.489 56.3611 150.332 55.5412 150.332 54.6433C150.332 53.7844 150.45 53.0035 150.684 52.2617C150.997 51.598 151.349 50.9733 151.779 50.4658ZM88.5735 55.1118C88.4953 55.3851 88.378 55.7365 88.2607 56.0488C88.1435 56.4392 87.9871 56.7906 87.8699 57.22C87.7135 57.6105 87.5963 58.0399 87.479 58.4304C87.3226 58.8208 87.2054 59.2112 87.0881 59.5235H87.049C86.9318 59.1721 86.8536 58.8208 86.7363 58.4694C86.6191 58.079 86.5018 57.7276 86.3845 57.2981C86.2673 56.9077 86.15 56.5563 86.0327 56.205C85.9155 55.8536 85.8373 55.5412 85.72 55.268L82.7884 46.5616H78.1761V62.9202H81.0295V54.3309C81.0295 53.1597 81.0295 52.1446 81.0295 51.2076C81.0295 50.2706 80.9904 49.4897 80.9904 48.826H81.0295C81.1858 49.3726 81.3813 49.9582 81.5376 50.5439C81.694 51.1685 81.9285 51.8323 82.163 52.6521L85.6028 62.9202H88.4562L91.3096 54.409C91.466 53.8234 91.7005 53.2768 91.8568 52.6912C92.0132 52.1056 92.2086 51.598 92.365 51.1295C92.5213 50.622 92.6386 50.2315 92.7559 49.8411C92.8731 49.4507 92.9513 49.1774 93.0295 48.9432H93.0686C93.0686 49.2945 93.0686 49.6459 93.0686 50.1144C93.0686 50.5829 93.0686 51.0514 93.0686 51.559C93.0686 52.0665 93.0686 52.6131 93.0686 53.1206C93.0686 53.6282 93.0686 54.0967 93.0686 54.5262V62.8811H95.9611V46.5226H91.4269L88.5735 55.1118ZM107.961 54.9556C108 55.0727 108.078 55.2289 108.117 55.346C108.157 55.5022 108.235 55.6193 108.274 55.7365H103.31L103.7 54.6042C104.052 53.7063 104.404 52.8083 104.756 51.9103C105.108 51.0124 105.459 50.0754 105.811 49.1774H105.85C106.007 49.5678 106.163 50.0754 106.398 50.661C106.632 51.2857 106.828 51.8713 107.062 52.4569C107.336 53.1206 107.57 53.8234 107.883 54.5652C107.883 54.7214 107.922 54.8385 107.961 54.9556ZM104.287 46.6006C103.544 48.3575 102.88 49.9192 102.332 51.2466C101.746 52.6131 101.277 53.7844 100.808 54.8385C100.378 55.8926 99.9871 56.7906 99.6744 57.6105C99.3617 58.3913 99.049 59.0941 98.8145 59.7578C98.5409 60.3824 98.3063 60.9681 98.1109 61.4756C97.9155 61.9832 97.6809 62.4907 97.4855 62.9592H100.456L102.293 58.2351H109.173C109.485 59.016 109.798 59.8359 110.111 60.6167C110.424 61.3975 110.736 62.1784 111.049 62.9983H114.098L107.453 46.6397H104.248V46.6006H104.287Z" fill="white"/>
<path fill-rule="evenodd" clip-rule="evenodd" d="M36.5081 24.2297C33.9674 24.2297 32.6384 25.9866 32.0521 26.8065C32.013 25.1276 31.4267 24.3468 30.0977 24.3468C28.0261 24.3468 26.8143 27.1578 26.1498 28.7195V28.7585L26.1107 28.7976L27.0879 29.3832L27.127 29.3051C27.1661 29.2271 27.2443 29.0709 27.2834 28.9147L27.3225 28.7976C27.7915 27.8215 28.6124 25.9866 29.5114 25.9866C30.0195 25.9866 30.0977 26.6112 30.0977 27.0017C30.0977 27.5092 29.9414 28.29 29.7068 29.5003L29.6678 29.6956L27.0489 40.9396C26.658 42.6184 26.5016 42.8917 24.8599 42.8917H24.8208L24.5863 44.1411H31.5831L31.8567 42.8917H31.7394C29.5505 42.8917 29.1987 42.8527 29.1987 42.0328C29.1987 41.8766 29.2769 41.4472 29.355 41.1348L30.5668 35.8642C31.2313 37.2697 32.0912 38.4019 34.5537 38.4019C38.8534 38.4019 41.1205 33.5607 41.1205 30.0469C41.2378 27.1188 39.7524 24.2297 36.5081 24.2297ZM38.3453 29.3442C38.3453 31.6086 37.2899 36.5669 34.0847 36.5669C32.2866 36.5669 31.6612 34.732 31.6612 33.1703C31.6612 30.1641 33.0684 25.9866 35.7655 25.9866C37.8762 25.9866 38.3453 27.8215 38.3453 29.3442ZM51.2052 36.606C51.2052 35.669 51.9479 34.9272 52.886 34.9272C53.8241 34.9272 54.5668 35.669 54.5668 36.606C54.5668 37.543 53.785 38.2848 52.886 38.2848C51.987 38.2848 51.2052 37.543 51.2052 36.606ZM24.5863 36.6841C23.4137 36.6841 22.9837 36.1765 22.9837 34.9272L23.0228 24.8544C23.0228 24.503 22.9446 24.2687 22.5537 24.2687C22.4756 24.2687 22.3583 24.2687 22.202 24.3078C22.0847 24.3078 21.9674 24.3468 21.8111 24.3468C20.9121 24.4639 19.3094 24.6201 17.3941 24.6591H17.316V25.9085H17.3941C18.4104 25.9085 19.0749 26.1818 19.0749 27.3921L19.0358 30.3202C19.0358 35.1614 17.1205 36.0984 15.7134 36.0984C14.5798 36.0984 14.1498 34.8881 14.1498 33.873L14.1889 24.8544C14.1889 24.503 14.1107 24.2687 13.7199 24.2687C13.6417 24.2687 13.5635 24.2687 13.4072 24.3078C13.2899 24.3078 13.1335 24.3468 12.9772 24.3468C12.1173 24.4639 10.671 24.6201 8.7557 24.6591H8.67752V25.9085H8.7557C9.77199 25.9085 10.4365 26.1818 10.4365 27.3921L10.3974 33.4826C10.3974 37.4259 12.43 38.2848 14.1498 38.2848C16.6124 38.2848 18.0586 36.6841 18.8795 35.7861L18.9577 35.708C19.1922 35.4347 19.4267 35.2005 19.4658 35.2005C19.5049 35.2005 19.6221 35.2005 19.6221 35.3957V37.8553C19.6221 38.2067 19.8958 38.2848 20.013 38.2848C20.1303 38.2848 20.3648 38.2457 20.7166 38.2067C21.6156 38.0896 23.1401 37.9334 24.6645 37.9334H24.7427V36.6841H24.5863ZM50.9316 17.3973C47.4919 17.3973 46.5537 22.3166 46.0847 24.8153H43.3094L43.0358 26.0647H45.8892L45.7329 27.314C45.5765 28.1339 45.4593 28.9928 45.342 29.8127L45.1466 31.2572C43.9348 39.417 43.3094 43.0869 41.9805 43.0869C41.8241 43.0869 41.8241 43.0479 41.8241 42.8527C41.8241 42.8136 41.8241 42.8136 41.8241 42.7746C41.8241 42.7356 41.8241 42.6965 41.8241 42.6575C41.8632 42.5403 41.8632 42.3842 41.8632 42.189C41.8632 41.6033 41.4723 41.252 40.8469 41.252C39.987 41.252 39.5961 41.8766 39.5961 42.5013C39.5961 43.5945 40.3778 44.3753 41.5114 44.3753C43.544 44.3753 46.0456 41.9938 48.2736 26.1427H51.3616L51.5961 24.8934H48.43L48.7036 22.8242C49.0945 19.9741 49.6026 18.7638 50.3844 18.7638C50.6971 18.7638 50.8925 18.92 50.8925 19.1933C50.8925 19.3494 50.8534 19.4666 50.8534 19.5837C50.8143 19.7008 50.8143 19.8179 50.8143 20.0132C50.8143 20.4817 51.0879 21.0282 51.9088 21.0282C52.886 21.0282 53.355 20.2474 53.355 19.4666C53.355 18.1001 52.4951 17.3973 50.9316 17.3973ZM59.2182 59.5626H3.94788V4.43542H59.2182V59.5626ZM0 0.492188H62.9707V4.39638V63.0374V63.2326H0V59.5236V0.687397V0.492188Z" fill="white"/>
</svg>
